<?xml version="1.0" encoding="UTF-8"?>
<svg width="512" height="512" viewBox="0 0 512 512" fill="none" xmlns="http://www.w3.org/2000/svg">
    <!-- Background Circle with Gradient -->
    <circle cx="256" cy="256" r="256" fill="url(#gradient)"/>
    
    <!-- Address Book Icon -->
    <path d="M384 64H128C110.3 64 96 78.33 96 96v320c0 17.67 14.33 32 32 32h256c17.67 0 32-14.33 32-32V96c0-17.67-14.33-32-32-32zM160 432h-32V96h32v336zm224 0H192V96h192v336z" fill="white"/>
    
    <!-- Contact Lines -->
    <rect x="220" y="160" width="120" height="16" rx="8" fill="white" opacity="0.9"/>
    <rect x="220" y="208" width="120" height="16" rx="8" fill="white" opacity="0.7"/>
    <rect x="220" y="256" width="120" height="16" rx="8" fill="white" opacity="0.5"/>
    <rect x="220" y="304" width="120" height="16" rx="8" fill="white" opacity="0.3"/>
    
    <!-- Gradient Definition -->
    <defs>
        <linearGradient id="gradient" x1="0" y1="0" x2="512" y2="512" gradientUnits="userSpaceOnUse">
            <stop offset="0%" style="stop-color:#6366f1"/>
            <stop offset="100%" style="stop-color:#4f46e5"/>
        </linearGradient>
    </defs>
</svg> 